<svg xmlns="http://www.w3.org/2000/svg" xmlns:xlink="http://www.w3.org/1999/xlink" width="550pt" height="399pt" viewBox="0.00 0.00 550.00 399.00">
<g id="graph0" class="graph" transform="scale(1 1) rotate(0) translate(4 395.2)">
<title>G</title>
<polygon fill="white" stroke="none" points="-4,4 -4,-395.2 546.43,-395.2 546.43,4 -4,4"/>
<!-- Player -->
<g id="node1" class="node">
<title>Player</title>
<ellipse fill="none" stroke="black" cx="217.21" cy="-284.4" rx="35.71" ry="18"/>
<text xml:space="preserve" text-anchor="middle" x="217.21" y="-280.2" font-family="Times,serif" font-size="14.00">Player</text>
</g>
<!-- Payload -->
<g id="node2" class="node">
<title>Payload</title>
<ellipse fill="none" stroke="black" cx="303.21" cy="-195.6" rx="42.15" ry="18"/>
<text xml:space="preserve" text-anchor="middle" x="303.21" y="-191.4" font-family="Times,serif" font-size="14.00">Payload</text>
</g>
<!-- Player&#45;&gt;Payload -->
<g id="edge1" class="edge">
<title>Player-&gt;Payload</title>
<path fill="none" stroke="black" d="M232.58,-267.88C245.62,-254.72 264.55,-235.61 279.53,-220.5"/>
<polygon fill="black" stroke="black" points="281.76,-223.21 286.32,-213.65 276.79,-218.29 281.76,-223.21"/>
<text xml:space="preserve" text-anchor="middle" x="290.46" y="-235.8" font-family="Times,serif" font-size="14.00">Protects</text>
</g>
<!-- Game Over -->
<g id="node7" class="node">
<title>Game Over</title>
<ellipse fill="none" stroke="black" cx="99.21" cy="-106.8" rx="55.81" ry="18"/>
<text xml:space="preserve" text-anchor="middle" x="99.21" y="-102.6" font-family="Times,serif" font-size="14.00">Game Over</text>
</g>
<!-- Player&#45;&gt;Game Over -->
<g id="edge13" class="edge">
<title>Player-&gt;Game Over</title>
<path fill="none" stroke="black" d="M194.76,-270.11C164.22,-250.49 111.21,-210.54 92.21,-159.6 89.47,-152.26 89.37,-143.98 90.45,-136.23"/>
<polygon fill="black" stroke="black" points="93.85,-137.05 92.48,-126.54 87,-135.61 93.85,-137.05"/>
<text xml:space="preserve" text-anchor="middle" x="138.72" y="-191.4" font-family="Times,serif" font-size="14.00">Dies</text>
</g>
<!-- Next Level -->
<g id="node8" class="node">
<title>Next Level</title>
<ellipse fill="none" stroke="black" cx="54.21" cy="-18" rx="54.21" ry="18"/>
<text xml:space="preserve" text-anchor="middle" x="54.21" y="-13.8" font-family="Times,serif" font-size="14.00">Next Level</text>
</g>
<!-- Player&#45;&gt;Next Level -->
<g id="edge15" class="edge">
<title>Player-&gt;Next Level</title>
<path fill="none" stroke="black" d="M190.08,-272.48C175.49,-266.18 157.42,-257.67 142.21,-248.4 79.92,-210.43 54.25,-194.94 34.21,-124.8 26.76,-98.75 34.16,-68.28 41.98,-46.75"/>
<polygon fill="black" stroke="black" points="45.21,-48.08 45.6,-37.49 38.69,-45.53 45.21,-48.08"/>
<text xml:space="preserve" text-anchor="middle" x="61.25" y="-147" font-family="Times,serif" font-size="14.00">Plays</text>
</g>
<!-- Checkpoint -->
<g id="node5" class="node">
<title>Checkpoint</title>
<ellipse fill="none" stroke="black" cx="412.21" cy="-106.8" rx="55.56" ry="18"/>
<text xml:space="preserve" text-anchor="middle" x="412.21" y="-102.6" font-family="Times,serif" font-size="14.00">Checkpoint</text>
</g>
<!-- Payload&#45;&gt;Checkpoint -->
<g id="edge6" class="edge">
<title>Payload-&gt;Checkpoint</title>
<path fill="none" stroke="black" d="M311.19,-177.93C317.18,-166.82 326.29,-152.53 337.56,-142.8 345.52,-135.93 355.06,-130.13 364.61,-125.34"/>
<polygon fill="black" stroke="black" points="365.95,-128.57 373.53,-121.18 362.99,-122.23 365.95,-128.57"/>
<text xml:space="preserve" text-anchor="middle" x="360.88" y="-147" font-family="Times,serif" font-size="14.00">Reaches</text>
</g>
<!-- Goal -->
<g id="node6" class="node">
<title>Goal</title>
<ellipse fill="none" stroke="black" cx="241.21" cy="-106.8" rx="29.81" ry="18"/>
<text xml:space="preserve" text-anchor="middle" x="241.21" y="-102.6" font-family="Times,serif" font-size="14.00">Goal</text>
</g>
<!-- Payload&#45;&gt;Goal -->
<g id="edge11" class="edge">
<title>Payload-&gt;Goal</title>
<path fill="none" stroke="black" d="M270.98,-183.57C260.03,-178.13 248.97,-170.36 242.56,-159.6 238.42,-152.64 237.03,-144.17 236.96,-136.11"/>
<polygon fill="black" stroke="black" points="240.44,-136.53 237.55,-126.33 233.45,-136.1 240.44,-136.53"/>
<text xml:space="preserve" text-anchor="middle" x="265.88" y="-147" font-family="Times,serif" font-size="14.00">Reaches</text>
</g>
<!-- Payload&#45;&gt;Game Over -->
<g id="edge12" class="edge">
<title>Payload-&gt;Game Over</title>
<path fill="none" stroke="black" d="M261.26,-193.07C209.09,-190.22 124.33,-182.16 103.67,-159.6 97.95,-153.36 95.82,-144.73 95.42,-136.31"/>
<polygon fill="black" stroke="black" points="98.92,-136.44 95.76,-126.33 91.92,-136.2 98.92,-136.44"/>
<text xml:space="preserve" text-anchor="middle" x="132.44" y="-147" font-family="Times,serif" font-size="14.00">Destroyed</text>
</g>
<!-- Enemy -->
<g id="node3" class="node">
<title>Enemy</title>
<ellipse fill="none" stroke="black" cx="366.21" cy="-373.2" rx="38.39" ry="18"/>
<text xml:space="preserve" text-anchor="middle" x="366.21" y="-369" font-family="Times,serif" font-size="14.00">Enemy</text>
</g>
<!-- Enemy&#45;&gt;Player -->
<g id="edge2" class="edge">
<title>Enemy-&gt;Player</title>
<path fill="none" stroke="black" d="M330.82,-354.06C320.81,-348.77 309.97,-342.88 300.12,-337.2 282.62,-327.12 263.49,-315.23 248.01,-305.38"/>
<polygon fill="black" stroke="black" points="329.05,-357.08 339.53,-358.62 332.29,-350.88 329.05,-357.08"/>
<polygon fill="black" stroke="black" points="250.01,-302.5 239.7,-300.06 246.23,-308.4 250.01,-302.5"/>
<text xml:space="preserve" text-anchor="middle" x="326.16" y="-324.6" font-family="Times,serif" font-size="14.00">Damages</text>
</g>
<!-- Enemy&#45;&gt;Payload -->
<g id="edge3" class="edge">
<title>Enemy-&gt;Payload</title>
<path fill="none" stroke="black" d="M362.14,-355.26C359.56,-345.07 356.01,-331.9 352.21,-320.4 338.87,-280.13 332.86,-271.03 317.21,-231.6 316.26,-229.23 315.28,-226.77 314.3,-224.3"/>
<polygon fill="black" stroke="black" points="317.58,-223.08 310.62,-215.09 311.08,-225.67 317.58,-223.08"/>
<text xml:space="preserve" text-anchor="middle" x="402.46" y="-280.2" font-family="Times,serif" font-size="14.00">Damages and Slows</text>
</g>
<!-- Power Up -->
<g id="node4" class="node">
<title>Power Up</title>
<ellipse fill="none" stroke="black" cx="359.21" cy="-18" rx="49.93" ry="18"/>
<text xml:space="preserve" text-anchor="middle" x="359.21" y="-13.8" font-family="Times,serif" font-size="14.00">Power Up</text>
</g>
<!-- Enemy&#45;&gt;Power Up -->
<g id="edge4" class="edge">
<title>Enemy-&gt;Power Up</title>
<path fill="none" stroke="black" d="M402.04,-366.35C444.1,-357.2 508.21,-335.1 508.21,-285.4 508.21,-285.4 508.21,-285.4 508.21,-105.8 508.21,-61.28 457.93,-39.19 415.78,-28.5"/>
<polygon fill="black" stroke="black" points="416.73,-25.13 406.19,-26.24 415.13,-31.94 416.73,-25.13"/>
<text xml:space="preserve" text-anchor="middle" x="525.32" y="-191.4" font-family="Times,serif" font-size="14.00">Drops</text>
</g>
<!-- Power Up&#45;&gt;Player -->
<g id="edge5" class="edge">
<title>Power Up-&gt;Player</title>
<path fill="none" stroke="black" d="M313.67,-25.63C276.66,-33.67 226.7,-51.18 202.21,-88.8 168.89,-139.95 189.89,-215.47 205.26,-255.74"/>
<polygon fill="black" stroke="black" points="201.97,-256.95 208.93,-264.94 208.47,-254.35 201.97,-256.95"/>
<text xml:space="preserve" text-anchor="middle" x="200.54" y="-147" font-family="Times,serif" font-size="14.00">Buffs</text>
</g>
<!-- Power Up&#45;&gt;Payload -->
<g id="edge10" class="edge">
<title>Power Up-&gt;Payload</title>
<path fill="none" stroke="black" d="M345.98,-35.72C336.03,-49.23 322.98,-69.18 316.09,-88.8 307.3,-113.88 304.32,-144.11 303.39,-165.83"/>
<polygon fill="black" stroke="black" points="299.9,-165.62 303.11,-175.72 306.89,-165.82 299.9,-165.62"/>
<text xml:space="preserve" text-anchor="middle" x="331.65" y="-102.6" font-family="Times,serif" font-size="14.00">Buffs</text>
</g>
<!-- Checkpoint&#45;&gt;Player -->
<g id="edge7" class="edge">
<title>Checkpoint-&gt;Player</title>
<path fill="none" stroke="black" d="M426.21,-124.4C433.12,-134.7 438.88,-148.11 433.21,-159.6 400.22,-226.39 313.74,-259.36 260.75,-273.78"/>
<polygon fill="black" stroke="black" points="259.93,-270.38 251.13,-276.28 261.69,-277.15 259.93,-270.38"/>
<text xml:space="preserve" text-anchor="middle" x="437.85" y="-191.4" font-family="Times,serif" font-size="14.00">Heals</text>
</g>
<!-- Checkpoint&#45;&gt;Payload -->
<g id="edge8" class="edge">
<title>Checkpoint-&gt;Payload</title>
<path fill="none" stroke="black" d="M406.27,-125.08C401.72,-136.18 394.46,-150.21 384.21,-159.6 374.06,-168.9 361.05,-175.98 348.45,-181.26"/>
<polygon fill="black" stroke="black" points="347.51,-177.87 339.44,-184.73 350.03,-184.4 347.51,-177.87"/>
<text xml:space="preserve" text-anchor="middle" x="413.08" y="-147" font-family="Times,serif" font-size="14.00">Heals</text>
</g>
<!-- Checkpoint&#45;&gt;Power Up -->
<g id="edge9" class="edge">
<title>Checkpoint-&gt;Power Up</title>
<path fill="none" stroke="black" d="M401.73,-88.65C394.21,-76.33 383.92,-59.48 375.35,-45.44"/>
<polygon fill="black" stroke="black" points="378.46,-43.82 370.26,-37.11 372.49,-47.47 378.46,-43.82"/>
<text xml:space="preserve" text-anchor="middle" x="407.56" y="-58.2" font-family="Times,serif" font-size="14.00">Drops</text>
</g>
<!-- Goal&#45;&gt;Next Level -->
<g id="edge14" class="edge">
<title>Goal-&gt;Next Level</title>
<path fill="none" stroke="black" d="M217.9,-94.98C187.2,-80.73 132.72,-55.44 95.09,-37.98"/>
<polygon fill="black" stroke="black" points="96.88,-34.95 86.33,-33.91 93.93,-41.3 96.88,-34.95"/>
<text xml:space="preserve" text-anchor="middle" x="180.79" y="-58.2" font-family="Times,serif" font-size="14.00">Gives</text>
</g>
</g>
</svg>